<svg version="1.1" id="Layer_1" xmlns="http://www.w3.org/2000/svg" xmlns:xlink="http://www.w3.org/1999/xlink" x="0px" y="0px"
	 width="100%" viewBox="0 0 1024 576" enable-background="new 0 0 1024 576" xml:space="preserve">
<path fill="#000000" opacity="1.000000" stroke="none" 
	d="
M492.310425,320.404541 
	C490.985840,315.421326 494.104584,313.035858 497.178406,310.689056 
	C503.206085,306.087006 510.099762,302.938660 517.151245,300.554016 
	C523.964844,298.249847 525.873352,293.674347 525.860901,287.105621 
	C522.492615,289.328186 519.327271,291.644592 515.948547,293.590485 
	C511.398621,296.210968 510.278442,295.804626 507.661713,290.991699 
	C504.026245,296.459839 497.681702,294.775513 492.652374,296.272461 
	C490.272919,296.980682 487.289215,297.043152 484.801788,298.552368 
	C483.393768,299.406677 481.720673,300.588440 480.352081,298.857056 
	C479.103333,297.277283 480.817139,296.181915 481.667969,295.025665 
	C482.053772,294.501343 482.409210,293.954681 483.220428,292.775909 
	C480.510284,293.077545 477.713715,292.390839 476.789825,294.711914 
	C475.415100,298.165649 473.607910,302.398651 476.538757,305.629089 
	C487.714996,317.947754 482.423676,331.781494 475.237579,343.262817 
	C473.969391,345.289032 472.300262,347.863922 469.320129,346.798096 
	C466.710266,345.864746 466.801514,343.089569 466.772064,340.777863 
	C466.650818,331.261963 467.765198,321.827393 469.143127,312.444489 
	C469.593994,309.374542 468.650665,307.547516 466.122559,306.406433 
	C458.271027,302.862671 449.892822,301.732361 441.388336,301.305359 
	C438.979156,301.184357 438.008545,303.172241 436.812408,304.723358 
	C430.306091,313.160797 423.348022,321.201080 415.932037,328.853973 
	C413.230438,331.641937 410.110962,333.819885 406.779358,335.724854 
	C405.048706,336.714417 403.221527,337.823364 401.202881,336.407562 
	C399.304047,335.075897 399.260895,333.093262 399.456848,331.019501 
	C400.130676,323.888367 403.575928,317.715698 406.234100,311.271240 
	C406.793243,309.915741 407.435883,308.594696 408.338409,306.597504 
	C398.731873,308.039581 389.766174,309.477509 380.771942,310.706604 
	C373.516510,311.698090 366.232697,312.537720 358.883820,312.361145 
	C357.415466,312.325867 355.630951,312.514740 355.130432,310.664093 
	C354.686615,309.023193 355.907043,307.855591 357.017090,306.834564 
	C358.937225,305.068268 361.438599,304.460968 363.846436,303.934875 
	C379.128479,300.595917 394.488770,297.644135 410.043610,295.905670 
	C413.002014,295.575043 414.792084,294.682159 416.213745,291.908447 
	C426.561035,271.720306 438.758850,252.625122 451.654694,234.010071 
	C456.261200,227.360672 461.517334,220.979584 467.891052,215.788269 
	C474.369965,210.511292 478.266449,211.790283 480.554047,219.721909 
	C483.788483,230.936401 482.030792,242.170578 480.745575,253.413940 
	C479.555389,263.826233 478.447601,274.248077 477.344208,284.669983 
	C477.243988,285.616760 477.440674,286.594940 477.535645,288.150879 
	C486.111938,286.879547 494.234741,285.270081 501.651428,281.789581 
	C503.713684,283.132965 501.932404,284.340179 502.064331,285.497070 
	C505.543854,284.345367 507.694702,279.449432 512.665833,282.171570 
	C513.601501,282.683960 515.365967,279.411072 517.980347,279.797058 
	C518.992249,283.529694 514.714661,285.298401 514.535522,288.552612 
	C520.285767,288.014709 528.024780,281.035583 529.610840,275.160278 
	C530.802917,270.744293 531.160217,265.982971 534.479553,262.238251 
	C535.968079,264.619629 535.968079,264.619629 534.789734,273.103973 
	C538.595947,268.479767 541.446899,263.963470 543.112061,258.687988 
	C544.317383,254.869324 543.509766,253.045700 539.101074,253.210266 
	C528.619751,253.601517 518.129761,253.778305 507.641998,253.967407 
	C505.317596,254.009293 502.977692,253.838165 500.663086,253.593399 
	C498.387970,253.352814 495.596619,253.475204 495.030975,250.514923 
	C494.480042,247.631653 496.568787,245.864594 498.796967,244.600021 
	C506.329529,240.325012 514.597656,238.385086 523.124939,237.791718 
	C532.280212,237.154648 541.209900,237.579208 547.542175,245.924988 
	C548.996338,247.841614 551.605164,247.022461 553.716003,246.979446 
	C569.388000,246.660187 585.053406,246.649460 600.504150,249.728928 
	C606.669067,250.957672 612.997925,252.000229 618.170593,256.122040 
	C624.665161,261.297363 625.711914,267.708069 621.013428,274.547089 
	C619.247192,277.117981 617.239929,279.523285 615.178406,282.218658 
	C628.669067,281.806091 641.131775,277.212311 654.612000,275.416748 
	C653.695557,278.010925 651.970703,277.995758 650.454895,278.328461 
	C643.313049,279.896027 636.236145,281.910065 629.018677,282.950897 
	C615.014404,284.970520 602.919373,291.162689 590.998047,298.345795 
	C575.780640,307.514984 559.014587,313.407135 541.935181,317.772186 
	C531.220886,320.510406 520.312622,323.236603 509.139374,323.939453 
	C503.360992,324.302948 497.435181,325.065887 492.310425,320.404541 
M526.198730,301.638275 
	C525.041687,306.426788 522.944885,310.999451 522.554871,315.958618 
	C532.910400,318.505463 588.864746,298.961182 595.932373,290.631561 
	C574.299011,294.030151 553.316833,300.915619 531.424744,306.294037 
	C533.908752,299.989014 556.081482,287.766602 558.710327,290.540527 
	C559.451111,292.046143 557.409241,292.697052 557.684631,294.735321 
	C561.136780,289.412231 565.447021,288.144318 570.839478,290.618683 
	C571.622192,290.977875 572.800659,290.569336 573.775879,290.399841 
	C582.452820,288.891479 591.076721,286.915680 599.812744,285.955475 
	C608.407532,285.010773 613.636292,279.914642 617.892517,273.309845 
	C621.060730,268.393494 619.802612,263.720276 614.836243,260.405243 
	C611.346130,258.075623 607.544006,256.276337 603.456238,255.417328 
	C586.384583,251.829926 569.059692,252.239304 551.756897,252.389832 
	C549.544556,252.409073 548.545593,253.521698 548.072876,255.632401 
	C546.544312,262.458099 543.071716,268.498871 538.521484,273.521790 
	C533.762695,278.774963 530.890808,284.663147 528.934387,291.259277 
	C527.992188,294.435760 528.043945,297.871033 526.198730,301.638275 
M469.180023,289.751709 
	C472.433502,289.036133 472.353058,286.289886 472.702423,283.864899 
	C474.575806,270.861725 475.728088,257.779449 476.546234,244.678513 
	C477.001831,237.383194 477.184021,230.024506 475.525940,222.804703 
	C475.128143,221.072586 474.882233,219.027115 472.744934,218.424805 
	C470.514374,217.796234 468.818634,219.036331 467.497650,220.576660 
	C463.174225,225.617905 458.438629,230.408142 454.802856,235.916275 
	C446.013733,249.231583 437.648865,262.832367 429.336029,276.454163 
	C425.741547,282.344299 422.150391,288.300446 419.690247,295.019257 
	C424.891510,295.019257 429.669250,294.857727 434.429810,295.074097 
	C437.798645,295.227203 440.004730,294.088135 441.806793,291.174042 
	C449.848297,278.170166 458.043335,265.260895 466.236267,252.351303 
	C467.179840,250.864517 467.536743,248.647751 470.813171,248.206650 
	C464.137726,265.098877 453.807251,279.098785 443.846954,294.951202 
	C452.937714,293.098206 460.670441,291.522064 469.180023,289.751709 
M425.441193,312.964630 
	C427.933716,309.708069 430.426239,306.451508 433.108368,302.947174 
	C422.051971,303.223907 411.572784,303.595917 408.599030,316.929657 
	C408.425964,317.705597 407.660706,318.342041 407.452362,319.118835 
	C406.468567,322.786621 404.009491,326.312378 406.380829,331.301941 
	C414.246704,326.698547 419.247284,319.691132 425.441193,312.964630 
M517.376709,317.257324 
	C522.217529,313.170410 520.970764,307.225677 523.127991,301.058655 
	C512.779480,305.125305 503.945496,309.019501 495.240875,316.387054 
	C503.277679,318.947937 509.952667,317.828156 517.376709,317.257324 
M521.924988,248.251144 
	C527.390503,247.565842 533.044861,248.605453 538.376221,246.412003 
	C526.659241,240.629272 515.142761,243.881180 503.603302,247.194214 
	C509.298309,249.183792 515.157166,248.699646 521.924988,248.251144 
M472.675507,322.339935 
	C472.053406,328.033234 471.716949,333.724518 472.261444,340.045685 
	C478.271179,332.870941 478.879120,321.248627 473.811981,313.888458 
	C473.458221,316.680267 473.151947,319.097626 472.675507,322.339935 
M466.692261,299.664032 
	C471.610992,301.874237 470.818695,298.557831 470.797455,295.204102 
	C467.369629,295.777740 464.294983,296.292267 460.262482,296.967102 
	C462.794983,298.031891 464.416321,298.713593 466.692261,299.664032 
z"/>
</svg>